<?xml version="1.0" encoding="UTF-8"?>
<svg viewBox="0 0 219.27 121.12" xmlns="http://www.w3.org/2000/svg">
 <g fill="none" stroke="#000">
  <path d="m21.82 95.178l0.5549-15.988 6.5575-6.5254c11.84-11.781 12.84-16.793 8.6439-43.319l-2.2035-13.931-15.456 0.0762-15.456-0.0762-2.2035 13.931c-4.1955 26.526-3.1956 31.537 8.644 43.319l6.5575 6.5254 0.5548 15.988c0.3209 17.742 1.3304 17.292-1.6726 18.922-1.271 1.194-4.7585 3.039-7.75 4.101-2.9916 1.061-5.3048 2.566-4.7548 2.648 0.54999 0.082001 2.2157-0.2 3.3157 0.068001 1.1 0.267 24.431 0.267 25.531 0 1.1-0.268 2.7657 0.014 3.3157-0.068001s-1.7633-1.587-4.7548-2.648c-2.9916-1.062-6.5237-2.64-7.7947-3.834-3.6661-1.779-1.653-1.342-1.6281-19.19z"/>
  <path d="m78.251 121.12h0.056-21.237c-0.401-1.533 8.0645-3.674 10.304-4.832 7.7178-3.991 8.6452-6.356 8.7878-22.408 0.1493-16.821-0.7408-20.59-5.3304-22.57-15.367-6.6283-22.422-18.13-20.479-33.386 0.6932-5.4436 6.9537-27.788 8.3209-30h39.212c1.3672 2.2121 7.6278 24.557 8.3208 30 1.943 15.256-5.112 26.758-20.479 33.386-4.5896 1.9797-5.4797 5.7484-5.3303 22.57 0.1425 16.052 1.0699 18.417 8.7878 22.408 2.2393 1.158 10.705 3.299 10.304 4.832h-21.237z"/>
  <path d="m137.44 120.93c-8.358-0.005997 6.768-0.005997-1.591 0-8.358 0.005997-20.242 0.418-20.66 0 3.43-2.191 9.383-3.699 11.932-5.202 2.55-1.502 6.401-3.709 7.403-4.588l0.115-3.094c0.027008-0.725-0.554-7.603-0.71799-15.366l-0.299-14.116-8.59-8.3965c-14.872-14.539-16.899-27.185-9.192-57.342l1.782-6.7339h38.046l1.781 6.7339c7.708 30.157 5.68 42.803-9.192 57.342l-8.589 8.3965-0.299 14.116c-0.16501 7.7633-0.746 14.641-0.71901 15.366l0.115 3.094c1.002 0.879 4.854 3.086 7.403 4.588 2.549 1.503 8.503 3.011 11.932 5.202-0.41802 0.418-12.301 0.005997-20.66 0z"/>
  <path d="m195.01 0h-16.743c-1.828 0-2.266 5.0838-3.464 10.246-8.143 35.112-4.517 50.186 15.405 64.05 2.486 1.73 2.502 1.8405 2.831 19.678 0.40799 22.183-0.313 23.256-16.331 24.306-2.466 0.162-5.684 2.839-5.11 2.839h46.825c0.573 0-2.645-2.677-5.111-2.839-16.018-1.05-16.739-2.123-16.33-24.306 0.328-17.837 0.34401-17.948 2.83-19.678 19.922-13.864 23.548-28.939 15.405-64.05-1.197-5.1617-1.636-10.246-3.464-10.246h-16.743z"/>
 </g>
</svg>
